<mxfile host="app.diagrams.net" modified="2023-01-08T03:03:49.764Z" agent="5.0 (Windows NT 10.0; Win64; x64) AppleWebKit/537.36 (KHTML, like Gecko) Chrome/108.0.0.0 Safari/537.36 Edg/108.0.1462.54" version="20.8.3" etag="YVViUw_nogFtsfco8emo" type="github">
  <diagram id="5dTxooQ3Ole6amx4uCY2" name="第 1 页">
    <mxGraphModel dx="810" dy="-708" grid="1" gridSize="10" guides="1" tooltips="1" connect="1" arrows="1" fold="1" page="1" pageScale="1" pageWidth="827" pageHeight="1169" math="0" shadow="0">
      <root>
        <mxCell id="0" />
        <mxCell id="1" parent="0" />
        <mxCell id="sU-Rl9dK5kgAw-hZzqf--2" value="权限点表" style="rounded=1;whiteSpace=wrap;html=1;" vertex="1" parent="1">
          <mxGeometry x="165" y="1810" width="120" height="30" as="geometry" />
        </mxCell>
        <mxCell id="sU-Rl9dK5kgAw-hZzqf--3" value="角色与权限的关系表" style="rounded=1;whiteSpace=wrap;html=1;" vertex="1" parent="1">
          <mxGeometry x="310" y="1844" width="160" height="26" as="geometry" />
        </mxCell>
        <mxCell id="sU-Rl9dK5kgAw-hZzqf--4" value="角色表" style="rounded=1;whiteSpace=wrap;html=1;" vertex="1" parent="1">
          <mxGeometry x="165" y="1870" width="120" height="30" as="geometry" />
        </mxCell>
        <mxCell id="sU-Rl9dK5kgAw-hZzqf--5" value="用户表" style="rounded=1;whiteSpace=wrap;html=1;" vertex="1" parent="1">
          <mxGeometry x="165" y="1930" width="120" height="30" as="geometry" />
        </mxCell>
        <mxCell id="sU-Rl9dK5kgAw-hZzqf--6" value="群组表" style="rounded=1;whiteSpace=wrap;html=1;" vertex="1" parent="1">
          <mxGeometry x="165" y="1990" width="120" height="30" as="geometry" />
        </mxCell>
        <mxCell id="sU-Rl9dK5kgAw-hZzqf--7" value="群组表" style="rounded=1;whiteSpace=wrap;html=1;" vertex="1" parent="1">
          <mxGeometry x="165" y="2050" width="120" height="30" as="geometry" />
        </mxCell>
      </root>
    </mxGraphModel>
  </diagram>
</mxfile>
